<svg xmlns="http://www.w3.org/2000/svg" width="17" height="21" viewBox="0 0 17 21">
    <path fill="#000" fill-rule="nonzero" d="M12.043.19c-1.16.384-2.26.773-3.067 1.574-.807.803-1.233 2-1.099 3.737.02.277.324.499.6.437 1.204-.265 2.385-.731 3.22-1.597.835-.866 1.265-2.14.992-3.775-.07-.38-.357-.459-.646-.377zm-7.14 5.997c.602 0 1.203.254 1.806.55.604.296 1.187.656 1.883.656.788-.074 1.529-.411 2.144-.663.712-.29 1.429-.543 2.037-.543 1.1 0 2.274.69 2.99 1.424-1.353 1.177-2.498 2.558-2.498 4.122.009 2.115 1.406 3.273 2.882 4.295a8.39 8.39 0 0 1-1.606 3.27c-.808.99-1.768 1.597-2.506 1.597-.628 0-1.165-.201-1.706-.437-.54-.235-1.08-.527-1.737-.527-.656 0-1.24.282-1.844.52-.605.237-1.217.444-1.845.444-.277 0-.786-.229-1.337-.738-.552-.51-1.15-1.27-1.683-2.185C.815 16.14-.016 13.675-.016 11.25c-.046-2.888 2.414-5.058 4.919-5.063z"/>
</svg>
