<svg xmlns="http://www.w3.org/2000/svg" width="13" height="13" viewBox="0 0 13 13">
    <path fill="#000" fill-rule="nonzero" d="M6.5 0A6.503 6.503 0 0 0 0 6.5C0 10.088 2.912 13 6.5 13S13 10.088 13 6.5 10.088 0 6.5 0zm0 .31a6.188 6.188 0 0 1 6.194 6.19A6.192 6.192 0 0 1 6.5 12.694 6.192 6.192 0 0 1 .306 6.5 6.189 6.189 0 0 1 6.5.31zm2.524 4.423a.16.16 0 0 0-.05.023l-2.492 1.52-.018.01a.068.068 0 0 0-.01.004l-.004.005c-.002 0-.003.002-.005.004l-.004.005-.01.009-.004.004-.005.004-.004.01-.005.004-.004.005v.009l-.005.004-.004.01-.005.009v.013l-.005.004V10.986a.153.153 0 1 0 .306 0V6.503l2.438-1.488a.154.154 0 0 0-.11-.283v.001z"/>
</svg>
