<svg xmlns="http://www.w3.org/2000/svg" width="34" height="34" viewBox="0 0 34 34">
    <g fill="none" fill-rule="evenodd">
        <path fill="#010202" d="M21.029 26.486l6.412-15.68-5.76 15.932a.35.35 0 1 1-.657-.238c0-.004.004-.01.005-.014"/>
        <path stroke="#010202" stroke-linecap="round" stroke-linejoin="round" stroke-width=".5" d="M21.488 26.243c-.333.832.726 6.854.726 6.854s-4.323-2.826-6.484-8.036c-2.162-5.21-1.33-6.263-1.164-9.311.166-3.05 2.972-7.806 4.628-9.395C20.387 5.21 24.38 2.2 26.548.585a1.693 1.693 0 0 1 2.421.423c2.512 3.756 3.95 8.174 3.855 12.692-.056 2.679-.647 5.38-2.392 7.168 0 0-4.116 3.97-7.442 4.359-3.325.388-1.119 6.458-1.119 6.458M12.793 27.111S7.195 25.725 5.2 23.453C3.205 21.18-.01 17.966.267 4.387c0 0 2.106-2.16 13.302 3.88"/>
        <path fill="#010202" d="M6.928 10.412a38.98 38.98 0 0 1 2.356 2.552c.374.443.77.874 1.067 1.384.27.511.59 1.053.582 1.675a.025.025 0 0 1-.047.011l-.002-.004c-.262-.512-.608-.95-.95-1.406-.338-.455-.638-.943-.966-1.415a85.524 85.524 0 0 0-2.077-2.764.024.024 0 0 1 .004-.035.025.025 0 0 1 .033.002"/>
    </g>
</svg>
